# AST/ASF file generated using VICON BodyLanguage
# -----------------------------------------------
:version 1.10
:name VICON
:units
  mass 1.0
  length 0.45
  angle deg
:documentation
   .ast/.asf automatically generated from VICON data using
   VICON BodyBuilder and BodyLanguage model FoxedUp or BRILLIANT.MOD
:root
   order TX TY TZ RX RY RZ
   axis XYZ
   position 0 0 0  
   orientation 0 0 0 
:bonedata
  begin
     id 1 
     name lhipjoint
     direction 0.645893 -0.654526 0.392961 
     length 2.38111 
     axis 0 0 0  XYZ
  end
  begin
     id 2 
     name lfemur
     direction 0.34202 -0.939693 0  
     length 6.6822  
     axis 0 0 20  XYZ
    dof rx ry rz
    limits (-160.0 20.0)
           (-70.0 70.0)
           (-60.0 70.0)
  end
  begin
     id 3 
     name ltibia
     direction 0.34202 -0.939693 0   
     length 6.93904   
     axis 0 0 20   XYZ
    dof rx
    limits (-10.0 170.0)
  end
  begin
     id 4 
     name lfoot
     direction 0.0694967 -0.190941 0.979138   
     length 2.13616   
     axis -90 7.62852e-016 20   XYZ
    dof rx rz
    limits (-45.0 90.0)
           (-70.0 20.0)
  end
  begin
     id 5 
     name ltoes
     direction 1.535e-011 -4.2202e-011 1   
     length 1.07536   
     axis -90 7.62852e-016 20   XYZ
    dof rx
    limits (-90.0 20.0)
  end
  begin
     id 6 
     name rhipjoint
     direction -0.700219 -0.612087 0.367481   
     length 2.54621  
     axis 0 0 0  XYZ 
  end
  begin
     id 7 
     name rfemur
     direction -0.34202 -0.939693 0   
     length 6.55353   
     axis 0 0 -20   XYZ
    dof rx ry rz
    limits (-160.0 20.0)
           (-70.0 70.0)
           (-70.0 60.0)
  end
  begin
     id 8 
     name rtibia
     direction -0.34202 -0.939693 0   
     length 6.8736   
     axis 0 0 -20   XYZ
    dof rx
    limits (-10.0 170.0)
 end
 begin
     id 9 
     name rfoot
     direction -0.0679995 -0.186827 0.980037   
     length 2.1218  
     axis -90 -7.62852e-016 -20   XYZ
    dof rx rz
    limits (-45.0 90.0)
           (-20.0 70.0)
  end
  begin
     id 10 
     name rtoes
     direction -1.53589e-011 -4.21772e-011 1   
     length 1.06864   
     axis -90 -7.62852e-016 -20   XYZ
    dof rx
    limits (-90.0 20.0)
  end
  begin
     id 11 
     name lowerback
     direction -0.0416607 0.996347 -0.0745409   
     length 2.12205   
     axis 0 0 0   XYZ
    dof rx ry rz
    limits (-20.0 45.0)
           (-30.0 30.0)
           (-30.0 30.0)
  end
  begin
     id 12 
     name upperback
     direction -0.000153993 0.999276 -0.0380568   
     length 2.12759   
     axis 0 0 0   XYZ
    dof rx ry rz
    limits (-20.0 45.0)
           (-30.0 30.0)
           (-30.0 30.0)
  end
  begin
     id 13 
     name thorax
     direction 0.0187671 0.999821 -0.00241421   
     length 2.13704   
     axis 0 0 0   XYZ
    dof rx ry rz
    limits (-20.0 45.0)
           (-30.0 30.0)
           (-30.0 30.0)
  end
  begin
     id 14 
     name lowerneck
     direction 0.0268157 0.964865 0.261374   
     length 1.65253   
     axis 0 0 0   XYZ
    dof rx ry rz
    limits (-20.0 45.0)
           (-30.0 30.0)
           (-30.0 30.0)
  end
  begin
     id 15 
     name upperneck
     direction 0.00263774 0.939908 -0.341418   
     length 1.72375   
     axis 0 0 0   XYZ
    dof rx ry rz
    limits (-20.0 45.0)
           (-30.0 30.0)
           (-30.0 30.0)
  end
  begin
     id 16
     name head
     direction -0.00526001 0.989001 -0.147818  
     length 1.74878  
     axis 0 0 0   XYZ
    dof rx ry rz
    limits (-20.0 45.0)
           (-30.0 30.0)
           (-30.0 30.0)
  end
  begin
     id 17 
     name lclavicle
     direction 0.881214 0.461162 -0.103884  
     length 3.25108  
     axis 0 0 0   XYZ
    dof ry rz
    limits (-20.0 10.0)
           (0.0 20.0)
  end
  begin
     id 18 
     name lhumerus
     direction 1 -4.4899e-011 3.38092e-027   
     length 4.87408   
     axis 180 -30 -90   XYZ
    dof rx ry rz
    limits (-60.0 90.0)
           (-90.0 90.0)
           (-90.0 90.0)
  end
  begin
     id 19
     name lradius
     direction 1 -4.48931e-011 9.96288e-027   
     length 2.76729   
     axis 180 -30 -90   XYZ
    dof rx
    limits (-10.0 170.0)
  end
  begin
     id 20
     name lwrist
     direction 1 -4.4896e-011 1.50617e-026   
     length 1.38364   
     axis -9.31234e-015 90 90   XYZ
    dof ry
    limits (-180.0 0.0)
 end
  begin
     id 21 
     name lhand
     direction 1 -4.49038e-011 3.01286e-026   
     length 0.98922   
     axis -1.92217e-014 90 90   XYZ
    dof rx rz
    limits (-90.0 90.0)
           (-45.0 45.0)
  end
  begin
     id 22 
     name lfingers
     direction 1 -4.49051e-011 6.02588e-026   
     length 0.797535   
     axis -3.84436e-014 90 90   XYZ
    dof rx
    limits (0.0 90.0)
  end
  begin
     id 23
     name lthumb
     direction 0.707107 -6.34901e-011 0.707107   
     length 1.14511   
     axis -90 45 2.19363e-014   XYZ
    dof rx rz
    limits (-45.0 45.0)
           (-45.0 45.0)
  end
  begin
     id 24 
     name rclavicle
     direction -0.893894 0.441652 -0.0767889   
     length 3.29361  
     axis 0 0 0   XYZ 
    dof ry rz
    limits (-10.0 20.0)
           (-20.0 0.0)
  end
  begin
     id 25 
     name rhumerus
     direction -1 -4.48945e-011 8.0491e-028  
     length 4.71404   
     axis 180 30 90   XYZ
    dof rx ry rz
    limits (-90.0 60.0)
           (-90.0 90.0)
           (-90.0 90.0)
  end
  begin
     id 26 
     name rradius
     direction -1 -4.48986e-011 9.27795e-027   
     length 2.83468   
     axis 180 30 90   XYZ
    dof rx
    limits (-10.0 170.0)
  end
  begin
     id 27 
     name rwrist
     direction -1 -4.49029e-011 1.5064e-026   
     length 1.41734   
     axis -9.31234e-015 -90 -90   XYZ
    dof ry
    limits (-180.0 0.0)
  end
  begin
     id 28
     name rhand
     direction -1 -4.48857e-011 3.01165e-026   
     length 0.868195   
     axis -1.92217e-014 -90 -90   XYZ
    dof rx rz
    limits (-90.0 90.0)
           (-45.0 45.0)
  end
  begin
     id 29
     name rfingers
     direction -1 -4.49048e-011 6.02585e-026   
     length 0.699961   
     axis -3.84436e-014 -90 -90   XYZ
    dof rx
    limits (0.0 90.0)
  end
  begin
     id 30
     name rthumb
     direction -0.707107 -6.34854e-011 0.707107   
     length 1.00501   
     axis -90 -45 -2.19363e-014   XYZ
    dof rx rz
    limits (-45.0 45.0)
           (-45.0 45.0)
  end
:hierarchy
  begin
    root lhipjoint rhipjoint lowerback
    lhipjoint lfemur
    lfemur ltibia
    ltibia lfoot
    lfoot ltoes
    rhipjoint rfemur
    rfemur rtibia
    rtibia rfoot
    rfoot rtoes
    lowerback upperback
    upperback thorax
    thorax lowerneck lclavicle rclavicle
    lowerneck upperneck
    upperneck head
    lclavicle lhumerus
    lhumerus lradius
    lradius lwrist
    lwrist lhand lthumb
    lhand lfingers
    rclavicle rhumerus
    rhumerus rradius
    rradius rwrist
    rwrist rhand rthumb
    rhand rfingers
  end

#!OML:ASF H:\ManfredObstacles\Project 1\Capture day 2\Session 1\male.ASF
:FULLY-SPECIFIED
:DEGREES
49
root 1.8445 14.9794 13.4106 -182.857 -6.60079 171.191
lowerback -6.14945 -5.56986 -10.0456
upperback 0.706832 -6.71326 -1.65344
thorax 5.14021 -3.61436 3.0823
lowerneck -32.1353 0.276827 4.20714
upperneck 45.2396 4.5674 -3.31538
head 28.4128 3.32568 -0.715685
rclavicle 6.31141e-015 1.07344e-014
rhumerus -68.731 -2.75404 -46.6084
rradius 37.7101
rwrist 16.6323
rhand -7.56899 -6.71528
rfingers 7.12502
rthumb 18.3235 -35.8723
lclavicle 6.31141e-015 1.07344e-014
lhumerus -38.3936 -23.5418 86.2377
lradius 86.6113
lwrist -23.8995
lhand -9.32328 -0.875133
lfingers 7.12502
lthumb 16.6352 28.432
rfemur -42.3828 3.43971 6.1079
rtibia 30.8409
rfoot 26.5593 -11.657
rtoes -35.503
lfemur 12.9375 -1.86111 -27.9883
ltibia 42.5881
lfoot 13.582 10.5388
ltoes -11.6927
50
root 1.88936 14.9451 13.0961 -182.822 -7.17018 170.988
lowerback -6.41758 -5.64334 -10.3504
upperback 0.616997 -6.76462 -1.70363
thorax 5.23283 -3.64968 3.16459
lowerneck -32.8591 0.17933 4.07022
upperneck 45.345 4.42618 -3.26452
head 28.9541 3.25416 -0.694831
rclavicle -2.29845e-014 1.39149e-014
rhumerus -68.8911 -3.22788 -46.6047
rradius 36.8575
rwrist 17.502
rhand -7.15674 -6.33892
rfingers 7.12502
rthumb 18.7201 -35.4582
lclavicle -2.29845e-014 1.39149e-014
lhumerus -38.2263 -23.6691 86.2149
lradius 86.0345
lwrist -23.8046
lhand -9.01703 -0.487846
lfingers 7.12502
lthumb 16.93 28.7943
rfemur -41.9899 2.86421 6.16232
rtibia 31.4041
rfoot 25.9678 -10.8794
rtoes -35.2952
lfemur 13.2469 -1.719 -27.6068
ltibia 43.4225
lfoot 15.3883 9.22701
ltoes -9.82787
51
root 1.93615 14.8994 12.7851 -182.897 -7.73931 170.845
lowerback -6.56865 -5.69252 -10.6595
upperback 0.56493 -6.79346 -1.73521
thorax 5.29959 -3.67419 3.28071
lowerneck -33.3307 0.0668178 3.91727
upperneck 45.3817 4.25035 -3.19352
head 29.2494 3.16988 -0.673863
rclavicle -6.63941e-014 -4.25399e-014
rhumerus -68.9572 -3.77491 -46.6588
rradius 36.0276
rwrist 18.4229
rhand -6.76359 -5.9904
rfingers 7.12502
rthumb 19.0982 -35.0727
lclavicle -6.63941e-014 -4.25399e-014
lhumerus -38.0582 -23.7551 86.2584
lradius 85.4351
lwrist -23.682
lhand -8.82728 -0.0125157
lfingers 7.12502
lthumb 17.1127 29.2538
rfemur -41.5099 2.03309 6.53024
rtibia 32.6423
rfoot 24.5045 -10.2813
rtoes -33.605
lfemur 13.4965 -1.60304 -27.1392
ltibia 44.556
lfoot 17.2043 7.93208
ltoes -7.68258
52
root 1.98426 14.8428 12.4791 -183.061 -8.2982 170.802
lowerback -6.61221 -5.72192 -10.9246
upperback 0.535 -6.80956 -1.73484
thorax 5.3265 -3.68997 3.41791
lowerneck -33.5243 -0.0419666 3.77347
upperneck 45.3399 4.05345 -3.11463
head 29.2533 3.0785 -0.662034
rclavicle 5.43925e-014 -1.39149e-014
rhumerus -68.9093 -4.39476 -46.7513
rradius 35.1978
rwrist 19.4104
rhand -6.41235 -5.63404
rfingers 7.12502
rthumb 19.4359 -34.6827
lclavicle 5.43925e-014 -1.39149e-014
lhumerus -37.885 -23.7774 86.3678
lradius 84.7784
lwrist -23.6147
lhand -8.78839 0.545054
lfingers 7.12502
lthumb 17.1501 29.8082
rfemur -40.9421 1.04408 7.17115
rtibia 34.3694
rfoot 22.2976 -9.8625
rtoes -30.4904
lfemur 13.65 -1.51343 -26.5463
ltibia 45.9905
lfoot 19.0094 6.63346
ltoes -5.3403
53
root 2.03326 14.7792 12.1797 -183.29 -8.83465 170.865
lowerback -6.56059 -5.7264 -11.1369
upperback 0.512805 -6.80708 -1.69876
thorax 5.30358 -3.69293 3.57639
lowerneck -33.4865 -0.220181 3.51967
upperneck 45.3185 3.81088 -2.95673
head 29.1312 2.96985 -0.589173
rclavicle 4.3832e-014 -1.66979e-014
rhumerus -68.7464 -5.10299 -46.8739
rradius 34.371
rwrist 20.4458
rhand -6.10372 -5.32522
rfingers 7.12502
rthumb 19.7326 -34.3436
lclavicle 4.3832e-014 -1.66979e-014
lhumerus -37.6955 -23.7448 86.5481
lradius 84.0243
lwrist -23.6768
lhand -8.90386 1.15816
lfingers 7.12502
lthumb 17.039 30.4309
rfemur -40.3474 0.0532826 7.97335
rtibia 36.4116
rfoot 19.5677 -9.70562
rtoes -26.4552
lfemur 13.6628 -1.4593 -25.8408
ltibia 47.7186
lfoot 20.7807 5.34241
ltoes -2.85524
